<svg xmlns="http://www.w3.org/2000/svg" width="230" height="211.027" viewBox="0 0 230 211.027">
  <g id="Groupe_31" data-name="Groupe 31" transform="translate(-117 -276)">
    <g id="Groupe_12" data-name="Groupe 12" transform="translate(171.822 303.613)" opacity="0.923">
      <path id="Icon_awesome-calendar-alt" data-name="Icon awesome-calendar-alt" d="M188.985,437.182a12.928,12.928,0,0,0,12.923,12.923H296.68A12.926,12.926,0,0,0,309.6,437.182V363.95H188.985Zm86.156-52.77a3.239,3.239,0,0,1,3.231-3.231h10.77a3.239,3.239,0,0,1,3.231,3.231v10.77a3.24,3.24,0,0,1-3.231,3.231h-10.77a3.241,3.241,0,0,1-3.231-3.231Zm0,34.459a3.239,3.239,0,0,1,3.231-3.231h10.77a3.239,3.239,0,0,1,3.231,3.231v10.77a3.24,3.24,0,0,1-3.231,3.231h-10.77a3.241,3.241,0,0,1-3.231-3.231Zm-34.459-34.459a3.24,3.24,0,0,1,3.231-3.231h10.767a3.239,3.239,0,0,1,3.231,3.231v10.77a3.24,3.24,0,0,1-3.231,3.231H243.912a3.242,3.242,0,0,1-3.232-3.231Zm0,34.459a3.24,3.24,0,0,1,3.231-3.231h10.767a3.239,3.239,0,0,1,3.231,3.231v10.77a3.24,3.24,0,0,1-3.231,3.231H243.912a3.242,3.242,0,0,1-3.232-3.231Zm-34.459-34.459a3.24,3.24,0,0,1,3.231-3.231h10.763a3.24,3.24,0,0,1,3.228,3.231v10.77a3.241,3.241,0,0,1-3.231,3.231H209.446a3.241,3.241,0,0,1-3.232-3.231Zm0,34.459a3.24,3.24,0,0,1,3.231-3.231h10.763a3.239,3.239,0,0,1,3.228,3.234v10.77a3.241,3.241,0,0,1-3.231,3.231H209.446a3.242,3.242,0,0,1-3.231-3.231Zm90.457-89.384H283.756V316.565a4.321,4.321,0,0,0-4.308-4.308h-8.616a4.32,4.32,0,0,0-4.308,4.308v12.922H232.066V316.565a4.32,4.32,0,0,0-4.311-4.308h-8.617a4.321,4.321,0,0,0-4.308,4.308v12.922H201.907a12.927,12.927,0,0,0-12.923,12.925v12.923H309.6V342.411a12.926,12.926,0,0,0-12.923-12.925Z" transform="translate(-188.984 -312.257)" fill="#fff"/>
      <path id="Tracé_7" data-name="Tracé 7" d="M188.985,368.819" transform="translate(-188.984 -325.742)" fill="#fff"/>
      <circle id="Ellipse_16" data-name="Ellipse 16" cx="18.555" cy="18.555" r="18.555" transform="translate(94.42 6.11)" fill="#962b2b"/>
      <g id="Groupe_11" data-name="Groupe 11" transform="translate(107.977 13.076)">
        <path id="Tracé_8" data-name="Tracé 8" d="M336.382,351.618a1.092,1.092,0,0,1-.781-.312,1.055,1.055,0,0,1-.325-.794V332.068l-2.838.99a1.4,1.4,0,0,1-.568.142,1.079,1.079,0,0,1-.794-.312,1.04,1.04,0,0,1-.312-.767,1.26,1.26,0,0,1,.152-.623.957.957,0,0,1,.554-.426l4.368-1.5a2.736,2.736,0,0,1,.3-.1,1.043,1.043,0,0,1,1.05.283,1.123,1.123,0,0,1,.3.78v19.976a1.067,1.067,0,0,1-1.024,1.107h-.081Z" transform="translate(-330.763 -329.426)" fill="#fff"/>
      </g>
    </g>
    <g id="Qui_sommes_nous_" data-name="Qui sommes nous " transform="translate(133.475 454.027)">
      <g id="Notre_actualité" data-name="Notre actualité" style="isolation: isolate">
        <text id="Notre_actualité-2" data-name="Notre actualité" transform="translate(0 26)" fill="#fff" font-size="28" font-family="Raleway-Bold, Raleway" font-weight="700" style="isolation: isolate"><tspan x="0" y="0">Notre actualité</tspan></text>
      </g>
    </g>
    <path id="Tracé_7-2" data-name="Tracé 7" d="M232,276A115.13,115.13,0,0,1,347,391a113.666,113.666,0,0,1-10.849,48.818,3.053,3.053,0,0,1-4.135,1.426h0a3.035,3.035,0,0,1-1.391-3.995A107.638,107.638,0,0,0,340.907,391a108.907,108.907,0,0,0-217.815,0,107.638,107.638,0,0,0,10.281,46.25,3.035,3.035,0,0,1-1.391,3.995h0a3.053,3.053,0,0,1-4.135-1.426A113.666,113.666,0,0,1,117,391,115.13,115.13,0,0,1,232,276" fill="#fff"/>
  </g>
</svg>
