<svg xmlns="http://www.w3.org/2000/svg" width="220.321" height="193.983" viewBox="0 0 220.321 193.983">
  <g id="Groupe_205" data-name="Groupe 205" transform="translate(-222 -151)">
    <g id="Icon_ionic-ios-chatbubbles" data-name="Icon ionic-ios-chatbubbles" transform="translate(263.769 171.697)">
      <path id="Tracé_11" data-name="Tracé 11" d="M421.32,271.4a7.942,7.942,0,0,1,1.082-4,10.977,10.977,0,0,1,.688-1.016,53.138,53.138,0,0,0,9.052-29.614c.1-30.24-25.416-54.769-56.966-54.769-27.515,0-50.472,18.726-55.851,43.585a52.668,52.668,0,0,0-1.214,11.216,55.632,55.632,0,0,0,56.08,55.457c5.017,0,11.774-1.509,15.479-2.526s7.379-2.361,8.33-2.724a8.663,8.663,0,0,1,3.052-.557,8.519,8.519,0,0,1,3.312.654L422.96,293.7a4.438,4.438,0,0,0,1.279.327,2.611,2.611,0,0,0,2.623-2.6V291.4a4.206,4.206,0,0,0-.164-.885Z" transform="translate(-295.713 -182)" fill="#284b63"/>
      <path id="Tracé_12" data-name="Tracé 12" d="M373.274,317.1c-1.18.327-2.689.689-4.329,1.05a60.506,60.506,0,0,1-11.15,1.476,55.633,55.633,0,0,1-56.08-55.457,61.989,61.989,0,0,1,.491-7.018c.2-1.41.426-2.82.754-4.2.327-1.476.722-2.952,1.148-4.4l-2.624,2.329a48.805,48.805,0,0,0-16.921,36.7,48.254,48.254,0,0,0,8.132,26.892c.754,1.148,1.18,2.034,1.049,2.624s-3.9,20.334-3.9,20.334a2.631,2.631,0,0,0,.885,2.525,2.667,2.667,0,0,0,1.673.59,2.348,2.348,0,0,0,.951-.2l18.4-7.247a5.124,5.124,0,0,1,3.935.066,55.186,55.186,0,0,0,19.907,3.936,51.506,51.506,0,0,0,39.387-18.07s1.05-1.443,2.263-3.148C376.029,316.316,374.651,316.742,373.274,317.1Z" transform="translate(-284.562 -204.122)" fill="#284b63"/>
    </g>
    <g id="Qui_sommes_nous_" data-name="Qui sommes nous " transform="translate(240.854 317.984)">
      <g id="Notre_actualité" data-name="Notre actualité" style="isolation: isolate">
        <text id="Contactez_nous" data-name="Contactez nous" transform="translate(0 22)" fill="#284b63" font-size="23" font-family="Raleway-Bold, Raleway" font-weight="700" style="isolation: isolate"><tspan x="0" y="0">Contactez nous</tspan></text>
      </g>
    </g>
    <path id="Tracé_15" data-name="Tracé 15" d="M331.171,151c-60.337.532-109.361,50.17-109.17,110.508a109.489,109.489,0,0,0,10.568,46.716h0a3.3,3.3,0,0,0,3.02-4.633,104.988,104.988,0,0,1-8.878-45.263c1.467-55.772,46.711-101.079,102.481-102.619a105.481,105.481,0,0,1,99.544,147.874,3.3,3.3,0,0,0,3.017,4.641h0A110.148,110.148,0,0,0,331.171,151Z" transform="translate(0)" fill="#1b3343"/>
  </g>
</svg>
