<svg xmlns="http://www.w3.org/2000/svg" width="191.07" height="87.459" viewBox="0 0 191.07 87.459">
  <g id="pFqKDt" transform="translate(-696.806 -364.754)">
    <g id="Groupe_45" data-name="Groupe 45" transform="translate(696.806 364.754)">
      <g id="Groupe_44" data-name="Groupe 44">
        <path id="Tracé_31" data-name="Tracé 31" d="M795.981,436.65c3.013,5.45,7.375,9.789,11.594,14.593.637-2.465,1.221-4.656,1.751-6.861.062-.258-.138-.6-.263-.879-.527-1.177-1.072-2.345-1.746-3.811h8.069c-.532,1.332-.986,2.482-1.45,3.627-.15.37-.529.776-.456,1.086.512,2.207,1.113,4.394,1.756,6.856,4.227-4.814,8.566-9.176,11.608-14.607,2.442.2,4.949.439,7.462.592,7.031.427,12.053,3.9,15.14,10.13a50.111,50.111,0,0,1,2.93,7.432,8.167,8.167,0,0,1-3.621,9.685,31.051,31.051,0,0,1-11.923,4.225,143.607,143.607,0,0,1-52.933-.463,27.7,27.7,0,0,1-9.709-3.685c-3.54-2.287-5.02-5.887-3.705-9.9a52.129,52.129,0,0,1,3.545-8.4,16.438,16.438,0,0,1,14.057-8.979C790.7,437.093,793.31,436.867,795.981,436.65Z" transform="translate(-715.881 -383.488)" fill="#241e19"/>
        <path id="Tracé_32" data-name="Tracé 32" d="M754.2,436.814c-5.484,6.629-9.32,13.69-8.977,22.679-2.8.248-5.686.595-8.577.739-9.416.471-18.819.387-28.082-1.611a34.622,34.622,0,0,1-7.686-2.615c-3.7-1.787-4.843-4.815-3.562-8.718a36.319,36.319,0,0,1,2.328-5.527,13.229,13.229,0,0,1,11.575-7.456c1.9-.118,3.8-.292,5.38-.416l9.176,11.332c1.506-3.157,1.918-6.015.035-9.042h6.145c-.206.819-.162,1.715-.586,2.128-1.156,1.122-.6,2.251-.319,3.41.261,1.062.565,2.114.985,3.671l9.384-11.5C745.4,434.45,750.175,433.817,754.2,436.814Z" transform="translate(-696.806 -382.768)" fill="#241e19"/>
        <path id="Tracé_33" data-name="Tracé 33" d="M877.43,436.91c4.062-3.094,8.818-2.449,12.9-3.057l9.364,11.549c.518-1.985,1.2-3.476,1.213-4.974.014-1.377-.688-2.76-1.113-4.281h5.962c-.333.995-.64,1.846-.9,2.713a3.793,3.793,0,0,0-.337,1.641c.291,1.481.745,2.93,1.27,4.9l9.4-11.557c2.025.2,4.533.423,7.033.712a12.255,12.255,0,0,1,9.648,6.827,37.331,37.331,0,0,1,2.723,6.585,6.259,6.259,0,0,1-2.84,7.552,25.054,25.054,0,0,1-9.53,3.334A119.23,119.23,0,0,1,887,459.47a4.413,4.413,0,0,1-.663-.209c.8-4.247-.6-8.1-2.156-11.914A30.889,30.889,0,0,0,877.43,436.91Z" transform="translate(-743.871 -382.756)" fill="#241e19"/>
        <path id="Tracé_34" data-name="Tracé 34" d="M819.119,364.754a59.844,59.844,0,0,1,7.865,1.614c7.218,2.42,10.9,7.814,11.951,15.181.134.944.185,1.9.241,2.853a10.723,10.723,0,0,0,.908,4.748c1.616,3.1-.07,8.849-2.66,11.342a9.494,9.494,0,0,0-1.491,2.86,31.245,31.245,0,0,1-7.977,10.863c-6.681,5.632-14.182,5.317-20.561-.793A34.694,34.694,0,0,1,799.67,402a9.349,9.349,0,0,0-1.395-1.861,9.826,9.826,0,0,1-1-1.2,13.121,13.121,0,0,1-1.6-8.829,9.962,9.962,0,0,1,1.089-2.257,4.853,4.853,0,0,0,.47-1.256c.4-2.495.6-5.034,1.171-7.488,1.758-7.568,6.863-11.755,14.191-13.469C814.531,365.187,816.552,365.09,819.119,364.754ZM800.867,390.21c-.425.333-1.215.637-1.287,1.063-.408,2.423-.517,4.862,1.051,7a5.829,5.829,0,0,0,.972.791c.4.349.983.643,1.158,1.089a31.367,31.367,0,0,0,5.288,8.943c5.56,6.544,12.844,7.067,18.932,1.255a27.363,27.363,0,0,0,6.527-10.3,2.763,2.763,0,0,1,.81-.966c.506-.445,1.233-.728,1.563-1.266a8.664,8.664,0,0,0,1.055-5.793c-.139-1.084-.6-1.9-1.9-1.607-1.723-5.316-2.749-7.109-4.342-7.529l.631,2.012a13.708,13.708,0,0,0-2.85-1.392c-1.829-.381-3.821-1.04-5.541-.661a24.343,24.343,0,0,1-11.867-.264,6.608,6.608,0,0,0-7.526,2.434A34.738,34.738,0,0,0,800.867,390.21Z" transform="translate(-722.517 -364.754)" fill="#241e19"/>
        <path id="Tracé_35" data-name="Tracé 35" d="M734.525,377.807c5.408.359,10.168,1.746,13.423,6.378a15.924,15.924,0,0,1,2.653,9.067,6.589,6.589,0,0,0,.7,3.506c1.209,2.067.07,6.9-1.644,8.6a5.356,5.356,0,0,0-1.1,1.6c-1.787,4.031-4.119,7.649-7.768,10.251-4.346,3.1-8.968,3.051-13.269-.122a24.376,24.376,0,0,1-7.619-10.2,4.208,4.208,0,0,0-1.061-1.432c-2.244-1.948-2.724-7.138-1.233-9.66.72-1.219.705-2.916.869-4.414.652-5.98,3.674-10.178,9.373-12.174A50.049,50.049,0,0,1,734.525,377.807Zm9.972,15.7a11.887,11.887,0,0,0-2.462-1.122,11.588,11.588,0,0,0-4.317-.367,18.676,18.676,0,0,1-8.634-.161c-3.406-.85-5.981.436-7.365,3.7-.407.958-.248,2.3-1.7,2.61-.135.028-.3.419-.274.621.183,1.579.367,3.161.651,4.723.065.358.5.891.8.918.957.087,1.041.788,1.305,1.434a19.754,19.754,0,0,0,6.084,8.509c3.62,2.784,7.453,2.935,11.043.139a33.8,33.8,0,0,0,4.264-4.567c1.639-1.865,1.783-4.595,4.017-6.264,1.308-.978,1.263-3.11.886-4.859-.072-.332-.4-.869-.6-.867-.972.007-.912-.748-1.174-1.317q-.955-2.066-2.016-4.083c-.145-.275-.5-.441-1.07-.926Z" transform="translate(-702.003 -368.155)" fill="#241e19"/>
        <path id="Tracé_36" data-name="Tracé 36" d="M921.63,393.58c.348,1.081.617,2.2,1.058,3.237.941,2.221.036,6.922-1.687,8.65a5.443,5.443,0,0,0-1.1,1.6,26.614,26.614,0,0,1-6.085,8.922c-5.11,4.762-11.1,4.832-16.287.175a26.026,26.026,0,0,1-6.118-8.73,7.006,7.006,0,0,0-1.453-2.011c-2.119-2.079-2.595-7.058-.887-9.548a3,3,0,0,0,.309-1.208c.272-1.743.435-3.508.8-5.23,1.344-6.33,6.357-10.6,13.4-11.058a26.077,26.077,0,0,1,8.2.7C918.221,380.776,921.752,386.046,921.63,393.58Zm-5.859.146c-2.266-1.392-4.392-2.275-6.766-1.626a16.37,16.37,0,0,1-8.479-.089c-3.486-.878-5.98.328-7.429,3.568-.441.985-.257,2.414-1.772,2.733-.1.022-.182.321-.214.5a6.87,6.87,0,0,0,.586,4.857,5.776,5.776,0,0,0,.847.941c.408.434.985.793,1.2,1.307a22.124,22.124,0,0,0,5.405,7.991c3.935,3.544,8.646,3.613,12.651.141a20.481,20.481,0,0,0,5.573-8.2,2.227,2.227,0,0,1,.707-1.134c1.763-.962,2.881-4.455,1.891-6.184-.11-.192-.325-.474-.481-.467-.979.041-.928-.744-1.154-1.328-.659-1.708-1.2-3.492-2.969-4.914Z" transform="translate(-746.635 -368.288)" fill="#241e19"/>
      </g>
    </g>
  </g>
</svg>
