<svg xmlns="http://www.w3.org/2000/svg" width="258.16" height="185.956" viewBox="0 0 258.16 185.956">
  <g id="Groupe_202" data-name="Groupe 202" transform="translate(-66.42 -3702.67)">
    <path id="Icon_awesome-user-friends" data-name="Icon awesome-user-friends" d="M737.305,383.547a30.866,30.866,0,1,0-.034,0Zm21.177,8.828h-2.288a42.638,42.638,0,0,1-37.781,0h-2.285a31.774,31.774,0,0,0-31.766,31.76v7.935A13.241,13.241,0,0,0,697.6,445.314h79.413a13.242,13.242,0,0,0,13.236-13.243v-7.935a31.775,31.775,0,0,0-31.766-31.765Zm58.236-8.828a26.471,26.471,0,1,0-26.47-26.472h0a26.475,26.475,0,0,0,26.471,26.471Zm13.236,8.828h-1.048a34.764,34.764,0,0,1-24.376,0h-1.048a30.633,30.633,0,0,0-15.359,4.247,40.36,40.36,0,0,1,10.947,27.524v10.589c0,.606-.139,1.185-.165,1.764h48.7a13.24,13.24,0,0,0,13.236-13.236A30.866,30.866,0,0,0,830,392.371h-.044Z" transform="translate(-582.417 3406.571)" fill="#fff"/>
    <g id="_" data-name=" " transform="translate(141.472 3739.693)" style="isolation: isolate">
      <g id="Groupe_7" data-name="Groupe 7" style="isolation: isolate">
        <path id="Tracé_4" data-name="Tracé 4" d="M719.177,332.4a13.038,13.038,0,0,1,7.2-1.886,15.512,15.512,0,0,1,9.326,2.682q3.712,2.682,3.713,7.947a8.981,8.981,0,0,1-1.611,5.44,18.55,18.55,0,0,1-3.616,3.428l-1.758,1.366a5.346,5.346,0,0,0-1.907,2.607c-.032.1-.061.212-.088.33a3.372,3.372,0,0,1-3.289,2.6h0a3.38,3.38,0,0,1-3.36-3.853,9.063,9.063,0,0,1,.476-1.946,10.235,10.235,0,0,1,3.317-3.688l1.809-1.415a6.38,6.38,0,0,0,1.437-1.466,5.011,5.011,0,0,0,.991-3.006,5.81,5.81,0,0,0-1.1-3.439q-1.1-1.552-4.026-1.553a4.435,4.435,0,0,0-4.077,1.912,8.255,8.255,0,0,0-.773,1.566,3.5,3.5,0,0,1-3.243,2.408h-.388a3.4,3.4,0,0,1-3.237-4.44A10.025,10.025,0,0,1,719.177,332.4Zm7.512,27.916h.648a3.39,3.39,0,0,1,3.39,3.39v.4a3.39,3.39,0,0,1-3.39,3.389h-.648a3.389,3.389,0,0,1-3.388-3.389v-.4A3.39,3.39,0,0,1,726.689,360.319Z" transform="translate(-714.808 -330.516)" fill="#284b63"/>
      </g>
    </g>
    <g id="_2" data-name=" " transform="translate(221.967 3747.482)" style="isolation: isolate">
      <g id="Groupe_8" data-name="Groupe 8" style="isolation: isolate">
        <path id="Tracé_5" data-name="Tracé 5" d="M781.177,338.4a13.038,13.038,0,0,1,7.2-1.886,15.512,15.512,0,0,1,9.326,2.682q3.712,2.682,3.713,7.947a8.98,8.98,0,0,1-1.611,5.44,18.546,18.546,0,0,1-3.616,3.428l-1.758,1.366a5.345,5.345,0,0,0-1.907,2.607c-.033.1-.061.212-.088.33a3.372,3.372,0,0,1-3.289,2.6h0a3.38,3.38,0,0,1-3.36-3.853,9.058,9.058,0,0,1,.477-1.946,10.236,10.236,0,0,1,3.317-3.688l1.809-1.415a6.379,6.379,0,0,0,1.437-1.466,5.011,5.011,0,0,0,.991-3.006,5.81,5.81,0,0,0-1.1-3.439q-1.1-1.552-4.026-1.553a4.435,4.435,0,0,0-4.077,1.912,8.262,8.262,0,0,0-.772,1.566,3.5,3.5,0,0,1-3.243,2.408h-.388a3.4,3.4,0,0,1-3.237-4.44A10.025,10.025,0,0,1,781.177,338.4Zm7.512,27.916h.648a3.39,3.39,0,0,1,3.39,3.39v.4a3.39,3.39,0,0,1-3.39,3.389h-.648a3.389,3.389,0,0,1-3.389-3.389v-.4A3.39,3.39,0,0,1,788.689,366.319Z" transform="translate(-776.808 -336.516)" fill="#284b63"/>
      </g>
    </g>
    <g id="Qui_sommes_nous_" data-name="Qui sommes nous " transform="translate(102.58 3854.135)" style="isolation: isolate">
      <text id="Qui_sommes_nous_2" data-name="Qui sommes nous ?" transform="translate(0 23)" fill="#f7fcff" font-size="24" font-family="Raleway-Bold, Raleway" font-weight="700" style="isolation: isolate"><tspan x="0" y="0">Qui sommes nous ?</tspan></text>
    </g>
    <path id="Tracé_6" data-name="Tracé 6" d="M774.516,302.107C711.033,304.73,659.638,356.189,657.1,419.675a121.99,121.99,0,0,0,17.5,68.28h0a21.931,21.931,0,0,0-.219-17.3,114.335,114.335,0,0,1-9.575-48.169c1.139-60.5,49.726-110.184,110.192-112.6A115.022,115.022,0,0,1,894.589,424.69q0,5.135-.448,10.158a5.885,5.885,0,0,0,7.05,6.308l.084-.017a122.72,122.72,0,0,0-126.76-139.032Z" transform="translate(-590.58 3400.67)" fill="#d5eaf8"/>
  </g>
</svg>
