<svg xmlns="http://www.w3.org/2000/svg" width="45.065" height="45.065" viewBox="0 0 45.065 45.065">
  <g id="Groupe_266" data-name="Groupe 266" transform="translate(-127.443 -3393.418)">
    <g id="Composant_6_7" data-name="Composant 6 – 7" transform="translate(127.443 3393.418)">
      <ellipse id="Ellipse_21" data-name="Ellipse 21" cx="22.532" cy="22.532" rx="22.532" ry="22.532" fill="#4f7e9f"/>
    </g>
    <path id="Icon_awesome-linkedin-in" data-name="Icon awesome-linkedin-in" d="M5.125,22.9H.378V7.61H5.125ZM2.749,5.525A2.762,2.762,0,1,1,5.5,2.75,2.772,2.772,0,0,1,2.749,5.525ZM22.891,22.9H18.154V15.455c0-1.773-.036-4.048-2.468-4.048-2.468,0-2.846,1.927-2.846,3.92V22.9H8.1V7.61h4.553V9.7h.066a4.988,4.988,0,0,1,4.491-2.468c4.8,0,5.687,3.164,5.687,7.273v8.4Z" transform="translate(138.527 3404.502)" fill="#fff"/>
  </g>
</svg>
