<svg xmlns="http://www.w3.org/2000/svg" width="110.577" height="189.801" viewBox="0 0 110.577 189.801">
  <g id="Groupe_43" data-name="Groupe 43" transform="translate(-1209.646 -166.12)">
    <path id="Tracé_21" data-name="Tracé 21" d="M1267.725,166.221c-.073-1.846-4.987,21.85,2.355,42.716s15.849,56.666-1.926,81.742-24.052,38.114-13.428,57.429c0,0-41.045-39.113-44.908-72.915S1268.894,195.6,1267.725,166.221Z" transform="translate(0)" fill="none"/>
    <line id="Ligne_6" data-name="Ligne 6" y1="34.859" transform="translate(1213.68 255.439)" fill="none" stroke="#fff" stroke-miterlimit="10" stroke-width="2"/>
    <line id="Ligne_7" data-name="Ligne 7" y1="51.253" transform="translate(1217.543 247.79)" fill="none" stroke="#fff" stroke-miterlimit="10" stroke-width="2"/>
    <line id="Ligne_8" data-name="Ligne 8" y1="64.75" transform="translate(1221.406 241.416)" fill="none" stroke="#fff" stroke-miterlimit="10" stroke-width="2"/>
    <line id="Ligne_9" data-name="Ligne 9" y1="76.725" transform="translate(1225.269 235.694)" fill="none" stroke="#fff" stroke-miterlimit="10" stroke-width="2"/>
    <line id="Ligne_10" data-name="Ligne 10" y1="87.773" transform="translate(1229.132 230.334)" fill="none" stroke="#fff" stroke-miterlimit="10" stroke-width="2"/>
    <line id="Ligne_11" data-name="Ligne 11" y1="98.17" transform="translate(1232.995 225.205)" fill="none" stroke="#fff" stroke-miterlimit="10" stroke-width="2"/>
    <line id="Ligne_12" data-name="Ligne 12" y1="108.122" transform="translate(1236.858 220.203)" fill="none" stroke="#fff" stroke-miterlimit="10" stroke-width="2"/>
    <line id="Ligne_13" data-name="Ligne 13" y1="117.731" transform="translate(1240.722 215.263)" fill="none" stroke="#fff" stroke-miterlimit="10" stroke-width="2"/>
    <line id="Ligne_14" data-name="Ligne 14" y1="127.123" transform="translate(1244.585 210.318)" fill="none" stroke="#fff" stroke-miterlimit="10" stroke-width="2"/>
    <line id="Ligne_15" data-name="Ligne 15" y1="136.39" transform="translate(1248.448 205.291)" fill="none" stroke="#fff" stroke-miterlimit="10" stroke-width="2"/>
    <path id="Tracé_22" data-name="Tracé 22" d="M1298.6,236.49V381.2h-.8c-.271-.261-.536-.522-.8-.777V236.49Z" transform="translate(-45.489 -36.39)" fill="#fff"/>
    <line id="Ligne_16" data-name="Ligne 16" y1="114.462" transform="translate(1256.174 194.62)" fill="none" stroke="#fff" stroke-miterlimit="10" stroke-width="2"/>
    <line id="Ligne_17" data-name="Ligne 17" y1="114.037" transform="translate(1260.037 188.598)" fill="none" stroke="#fff" stroke-miterlimit="10" stroke-width="2"/>
    <line id="Ligne_18" data-name="Ligne 18" y1="115.322" transform="translate(1263.9 181.461)" fill="none" stroke="#fff" stroke-miterlimit="10" stroke-width="2"/>
    <line id="Ligne_19" data-name="Ligne 19" y1="90.695" transform="translate(1267.763 200.54)" fill="none" stroke="#fff" stroke-miterlimit="10" stroke-width="2"/>
    <line id="Ligne_20" data-name="Ligne 20" y1="71.529" transform="translate(1271.626 213.515)" fill="none" stroke="#fff" stroke-miterlimit="10" stroke-width="2"/>
    <line id="Ligne_21" data-name="Ligne 21" y1="48.351" transform="translate(1275.489 227.485)" fill="none" stroke="#fff" stroke-miterlimit="10" stroke-width="2"/>
    <path id="Tracé_23" data-name="Tracé 23" d="M1274.932,396.315c.309.724.594,1.352.845,1.874q-.6-.942-1.183-1.874c-.164-.261-.323-.522-.483-.777-40.113-64.943-14.037-107.2,0-122.932.328-.372.652-.724.966-1.067a40.936,40.936,0,0,1,6.3-5.828q-3.607,7.837-6.3,15.51-.5,1.412-.966,2.81c-17.123,51.2-5.9,94.949,0,110.247C1274.4,395.026,1274.676,395.707,1274.932,396.315Z" transform="translate(-22.283 -51.5)" fill="#284b63" opacity="0.9"/>
    <path id="Tracé_24" data-name="Tracé 24" d="M1300.45,540.06q.609.949,1.231,1.9C1301.527,542.011,1301.083,541.354,1300.45,540.06Z" transform="translate(-46.956 -193.371)" fill="#fff" stroke="#fff" stroke-width="1"/>
    <g id="Groupe_42" data-name="Groupe 42" transform="translate(1252.151 345.337)">
      <path id="Tracé_25" data-name="Tracé 25" d="M1355.738,540.073l1.917.068c-6.34,1.241-14.395,4.8-26.336,7.055-17.867,3.38-33.319-9.155-33.319-9.155l.835.029,56.893,2Z" transform="translate(-1297.841 -537.663)" fill="none"/>
      <path id="Tracé_26" data-name="Tracé 26" d="M1429.585,542.19l-1.734-.058a.018.018,0,0,0-.015,0l-3.525-.121h-.039l-2.733-.1a15.51,15.51,0,0,1,7.982.14Z" transform="translate(-1361.725 -539.433)" fill="#fff"/>
      <path id="Tracé_27" data-name="Tracé 27" d="M1365.742,540.486a10.835,10.835,0,0,0-1.946-.526.018.018,0,0,0-.015,0,13.952,13.952,0,0,0-3.525-.121h-.039c-3.269.27-7,1.439-11.507,2.844a149.4,149.4,0,0,1-17.471,4.587,33.463,33.463,0,0,1-6.268.579c-12.932,0-23.709-7.1-26.65-9.233a1.178,1.178,0,0,1-.155-.116,1.928,1.928,0,0,1-.5-.662l.159-.2.3-.377c.01.01.073.058.184.145.087.063.2.155.348.261,2.854,2.105,16.78,11.608,32.392,8.653a146.572,146.572,0,0,0,17.364-4.563c2.612-.816,4.969-1.555,7.137-2.086h.01c3.631-.889,6.736-1.212,9.629-.381l.27.589.063.14Z" transform="translate(-1297.67 -537.26)" fill="#e8e8e8"/>
    </g>
    <path id="Tracé_28" data-name="Tracé 28" d="M1297.9,535.871a1.162,1.162,0,0,1-.155-.116,1.927,1.927,0,0,1-.5-.662,6.251,6.251,0,0,1-.324-3.134l.966,2.038,0,.666v.608Z" transform="translate(-45.097 -189.183)" fill="#2e3192" stroke="#fff" stroke-width="1"/>
  </g>
</svg>
