<svg xmlns="http://www.w3.org/2000/svg" xmlns:xlink="http://www.w3.org/1999/xlink" width="110.117" height="110.117" viewBox="0 0 110.117 110.117">
  <defs>
    <filter id="Ellipse_20" x="0" y="0" width="110.117" height="110.117" filterUnits="userSpaceOnUse">
      <feOffset dy="3" input="SourceAlpha"/>
      <feGaussianBlur stdDeviation="3" result="blur"/>
      <feFlood flood-opacity="0.161"/>
      <feComposite operator="in" in2="blur"/>
      <feComposite in="SourceGraphic"/>
    </filter>
  </defs>
  <g id="Groupe_265" data-name="Groupe 265" transform="translate(-139.941 -1462.609)">
    <g transform="matrix(1, 0, 0, 1, 139.94, 1462.61)" filter="url(#Ellipse_20)">
      <circle id="Ellipse_20-2" data-name="Ellipse 20" cx="46.059" cy="46.059" r="46.059" transform="translate(9 6)" fill="#3aaae1"/>
    </g>
    <path id="Icon_awesome-twitter" data-name="Icon awesome-twitter" d="M51.792,15.065c.037.513.037,1.026.037,1.538,0,15.64-11.9,33.661-33.661,33.661A33.433,33.433,0,0,1,0,44.954a24.476,24.476,0,0,0,2.857.146,23.694,23.694,0,0,0,14.688-5.055,11.852,11.852,0,0,1-11.062-8.2,14.92,14.92,0,0,0,2.234.183,12.513,12.513,0,0,0,3.113-.4A11.833,11.833,0,0,1,2.344,20.01v-.146a11.915,11.915,0,0,0,5.348,1.5A11.849,11.849,0,0,1,4.029,5.542a33.629,33.629,0,0,0,24.394,12.38,13.356,13.356,0,0,1-.293-2.71A11.842,11.842,0,0,1,48.606,7.117,23.293,23.293,0,0,0,56.114,4.26a11.8,11.8,0,0,1-5.2,6.52,23.717,23.717,0,0,0,6.813-1.831,25.432,25.432,0,0,1-5.934,6.117Z" transform="translate(166.138 1487.845)" fill="#f8f7f7"/>
  </g>
</svg>
