<svg xmlns="http://www.w3.org/2000/svg" viewBox="0 0 654.66 674.16"><defs><style>.cls-1{fill:#1c3445;}.cls-2{fill:#284b63;}</style></defs><g id="Calque_2" data-name="Calque 2"><g id="Calque_6" data-name="Calque 6"><path class="cls-1" d="M420.51,136.25C333,65.39,176.61,0,176.61,0,305.32,82.32,312.14,141.92,287.45,180.72c-24.12,37.91-78.3,56-78.3,56s192.32,97.64,260.37,5.92C492.77,211.27,465.92,173,420.51,136.25Z"/><path class="cls-2" d="M654.66,187.82s-63.31-23.79-106,83.49c-30.21,75.8-78.35,134.06-157,177.7C305.6,496.79,231.46,563.66,174.15,643.66c-8.29,11.57-14.77,21.45-19.26,30.5,14.2-54.41,46.77-182.25,76.21-237,41.07-76.39,53.08-93.31,53.08-93.31S65.09,440.84,0,14.79c0,0,125.54,173.35,332.7,210.1a160.56,160.56,0,0,0,103.05-16c25.36-13.4,56.6-32.54,81.93-56.92C565.08,106.36,605.17,118.41,654.66,187.82Z"/></g></g></svg>