<svg xmlns="http://www.w3.org/2000/svg" width="511.055" height="283.755" viewBox="0 0 511.055 283.755">
  <g id="Groupe_268" data-name="Groupe 268" transform="translate(-423 -154.803)">
    <g id="i8eJ52.tif" transform="translate(423 154.803)">
      <g id="Groupe_79" data-name="Groupe 79">
        <g id="Groupe_78" data-name="Groupe 78">
          <path id="Tracé_55" data-name="Tracé 55" d="M659.528,154.8l8.58.031q10.421,0,20.838,0,4.291-.015,8.582-.033l10.284.062c9.108.631,18.245.974,27.318,1.941,45.093,4.809,88.99,14.368,129.871,34.748,31.917,15.911,59.277,36.434,69.054,73.343v5.145c-.564,3.281-1.6,6.56-1.617,9.842q-.2,41.858-.055,83.717c.075,23.91.324,47.82.494,71.729q-1.165,1.232-2.334,2.464l-1.624.285c-15.337.154-30.672.461-46.007.432-28.693-.057-57.385-.307-86.077-.477l-2.507-1.525c.732-3.006.66-6.587,2.334-8.916,7.328-10.2,14.311-20.876,23.03-29.8,10.357-10.607,8.408-20.735,1.869-31.45-3.245-5.316-6.649-11.223-11.516-14.731-13.1-9.448-26.139-19.844-40.8-26.117-44-18.825-90.165-21.481-137.026-13.269-28.456,4.989-55.338,14.131-78.2,32.6-12.555,10.146-22.089,22.5-24.549,38.9A17.616,17.616,0,0,0,532.2,395.3c7.484,10.784,15.88,20.929,23.6,31.559,1.823,2.511,2.346,5.966,3.468,8.988-3.092.9-6.182,2.562-9.28,2.576q-58.3.268-116.592.027c-2.914-.009-5.822-1.288-8.734-1.977q.016-78.714-.041-157.431c-.005-3-1.055-6-1.619-9v-6.86c4.2-8.9,7.547-18.338,12.787-26.575,10.8-16.985,26.59-28.948,44-38.422,50.094-27.254,103.914-40.531,160.84-41.725m167.636,272.02H922.986V279.219Zm-263.651.027c-37.329-49.1-73.341-96.469-110.431-145.258V428.509ZM803.178,214.166A419.118,419.118,0,0,0,684.262,197.7v26.184L793.379,239.1ZM672.832,223.85V197.493c-40.557.23-79.664,5.56-118.734,17.515,3.771,9.5,7.088,17.858,9.693,24.424ZM885.645,310.1c16.559-16.676,17.511-25.419,4.838-43.651-3.236-4.653-6.711-9.665-11.262-12.78-14.061-9.619-28.449-18.825-43.212-27.323-6.961-4.006-15.066-6.026-23.253-9.178-3.8,9.832-7.122,18.436-10.519,27.228C836.9,258.37,870.049,272.606,885.645,310.1Zm-416.28,1.639c16.65-38.12,50.771-52.894,85.747-67.042-3.685-9.185-7.131-17.767-11.434-28.487-18.069,9.573-35.68,17.283-51.416,27.8-10.871,7.266-20.581,17.379-28.261,28.055C452.2,288.469,454.09,296.513,469.365,311.74Zm81.023-106.246c40.346-12.252,81.143-17.321,122.427-18.266v-23.57c-44.911.852-88.5,5.963-131.47,19.144ZM815.658,182.8c-43.5-13.011-86.917-18.547-131.536-19.043v23.517c41.7.888,82.477,5.654,122.7,17.52C809.781,197.428,812.516,190.62,815.658,182.8ZM447.3,282.879c17.208-42.6,55.029-58.617,93.322-74.629-3.132-7.824-5.944-14.85-8.9-22.233-21.427,7.078-41.581,15.359-58.914,28.569a152.633,152.633,0,0,0-29.629,29.242C430.632,260.59,432.05,266.751,447.3,282.879Zm111.825-27.727c-15.6,3.521-40.08,14.81-53.731,26.559-8.292,7.136-16.151,15.443-21.96,24.642-9.07,14.361-5.526,24.894,8.983,34.513,15.081-33.09,45.378-47.027,76.825-60.04C565.682,271.785,562.384,263.416,559.128,255.152ZM836.49,375.375c4.363-5.668,7.957-10.341,11.554-15.011,8.993-11.677,9.643-16.865,1.463-29.017-15.549-23.1-39.564-33.217-65.122-42.225-3.764,9.593-7.143,18.2-10.616,27.057C801.4,329.3,825.36,344.758,836.49,375.375ZM816.656,207.4c38.358,15.524,75.628,31.118,92.117,72.877,15.724-16.767,16.062-21.8,3.09-39.855-.833-1.159-1.662-2.329-2.583-3.418-22.224-26.29-52.215-39.588-84.1-51.1C822.187,193.453,819.5,200.227,816.656,207.4ZM573.032,290.519c-21.739,7.86-42.1,16.928-57.514,33.652-6.143,6.666-9.785,15.721-14.08,23.941-.99,1.9-.914,5.478.262,7.186,5.421,7.854,11.4,15.32,17.932,23.9,9.993-33.591,35.486-49.428,63.474-63.151Zm-4.515-39.02c2.931,7.585,5.61,13.874,7.777,20.334,1.61,4.8,4.049,5.634,8.973,4.519,16.09-3.644,32.241-7.175,48.53-9.727,12.831-2.01,25.9-2.507,38.892-3.679V236.062C637.113,237.011,602.763,240.952,568.517,251.5Zm220.265-.557c-34.944-9.964-69.37-14.37-104.631-14.689V261.6c31.826,4.368,63.026,8.648,95.152,13.056C781.99,267.935,785.139,260.055,788.781,250.941Zm-.526,28.55c31.294,12.435,61.527,25.359,75.869,58.674,15.151-14.987,15.933-22.975,4.157-39.915-.163-.233-.319-.473-.492-.7-17.729-22.876-42.743-33.865-69.459-43.592C794.779,262.963,791.585,271.049,788.255,279.492Zm-104.169-7.969v24.685l81.129,14.315c2.816-7.168,6.091-15.5,10.377-26.409Zm-101.534,15.9,9.177,23,80.9-13.963V273.472C641.786,274.314,612.281,278.2,582.552,287.42Z" transform="translate(-423 -154.803)" fill="#fff"/>
          <path id="Tracé_56" data-name="Tracé 56" d="M424.66,388.434l-.823-.177-.837.093V222c.564,3,1.614,6,1.619,9Q424.755,309.72,424.66,388.434Z" transform="translate(-423 -106.761)" fill="#fff"/>
          <path id="Tracé_57" data-name="Tracé 57" d="M721.72,386.635l-.34.777-.839-.123c-.17-23.91-.418-47.82-.494-71.729q-.129-41.858.055-83.717c.015-3.282,1.053-6.561,1.617-9.842Z" transform="translate(-210.665 -106.761)" fill="#fff"/>
          <path id="Tracé_58" data-name="Tracé 58" d="M642.031,320.594q-1.253-.761-2.505-1.525Z" transform="translate(-268.196 -37.361)" fill="#fff"/>
          <path id="Tracé_59" data-name="Tracé 59" d="M719.629,319.818l-.775.35-.849-.065Z" transform="translate(-212.087 -36.826)" fill="#fff"/>
        </g>
      </g>
    </g>
    <path id="Tracé_60" data-name="Tracé 60" d="M613.607,354.747c-51.929,0-92.607-18.832-92.607-42.874S561.679,269,613.607,269s92.607,18.832,92.607,42.874S665.536,354.747,613.607,354.747Zm0-75.458c-22.677,0-43.916,3.775-59.807,10.629-14.306,6.17-22.51,14.172-22.51,21.955s8.2,15.784,22.51,21.955c15.891,6.855,37.13,10.629,59.807,10.629s43.916-3.775,59.807-10.629c14.306-6.17,22.51-14.172,22.51-21.955s-8.2-15.784-22.51-21.955C657.524,283.064,636.284,279.29,613.607,279.29Z" transform="translate(70.065 81.645)" fill="#fff"/>
  </g>
</svg>
