<svg xmlns="http://www.w3.org/2000/svg" width="254.802" height="141.474" viewBox="0 0 254.802 141.474">
  <g id="Groupe_80" data-name="Groupe 80" transform="translate(-423 -154.803)">
    <g id="i8eJ52.tif" transform="translate(423 154.803)">
      <g id="Groupe_79" data-name="Groupe 79">
        <g id="Groupe_78" data-name="Groupe 78">
          <path id="Tracé_55" data-name="Tracé 55" d="M540.928,154.8l4.278.015H555.6l4.279-.016,5.128.031c4.541.315,9.1.486,13.62.968,22.482,2.4,44.369,7.164,64.751,17.325,15.913,7.933,29.554,18.165,34.429,36.567v2.565a30.557,30.557,0,0,0-.806,4.907q-.1,20.87-.027,41.74c.038,11.921.162,23.842.246,35.763l-1.164,1.229-.81.142c-7.647.077-15.292.23-22.938.215-14.306-.028-28.611-.153-42.916-.238l-1.25-.76c.365-1.5.329-3.284,1.164-4.445,3.654-5.087,7.135-10.408,11.482-14.86,5.164-5.288,4.192-10.338.932-15.681-1.618-2.651-3.315-5.6-5.742-7.345-6.533-4.71-13.032-9.894-20.344-13.021-21.94-9.386-44.955-10.71-68.319-6.615-14.188,2.487-27.59,7.046-38.988,16.256-6.26,5.058-11.013,11.218-12.24,19.4a8.783,8.783,0,0,0,1.363,5.77c3.731,5.377,7.918,10.435,11.765,15.734.909,1.252,1.17,2.975,1.729,4.481-1.542.448-3.082,1.277-4.627,1.284q-29.065.133-58.131.014a20.119,20.119,0,0,1-4.355-.986q.008-39.245-.02-78.492a25.314,25.314,0,0,0-.807-4.489v-3.42c2.1-4.435,3.763-9.143,6.375-13.25,5.386-8.468,13.257-14.433,21.938-19.156,24.976-13.588,51.809-20.208,80.192-20.8m83.58,135.624h57.2V216.834Zm-131.451.014c-18.612-24.481-36.567-48.1-55.059-72.423v72.423ZM612.549,184.4a208.964,208.964,0,0,0-59.289-8.21v13.055l54.4,7.588Zm-64.988,4.828V176.087a203.7,203.7,0,0,0-59.2,8.733c1.88,4.738,3.534,8.9,4.833,12.177Zm106.1,43c8.256-8.314,8.731-12.673,2.412-21.763-1.614-2.32-3.346-4.819-5.615-6.372-7.01-4.8-14.184-9.386-21.544-13.622-3.471-2-7.511-3-11.593-4.576l-5.245,13.575C629.364,206.44,645.89,213.537,653.666,232.231Zm-207.549.817c8.3-19.006,25.313-26.372,42.752-33.426-1.837-4.58-3.555-8.858-5.7-14.2-9.009,4.773-17.789,8.617-25.635,13.859a56.892,56.892,0,0,0-14.09,13.988C437.558,221.446,438.5,225.457,446.117,233.049Zm40.4-52.972c20.116-6.108,40.456-8.636,61.04-9.107V159.218c-22.392.425-44.123,2.973-65.548,9.545Zm132.258-11.312c-21.687-6.487-43.335-9.247-65.581-9.494v11.725c20.791.443,41.121,2.819,61.174,8.735ZM435.117,218.659c8.579-21.241,27.437-29.225,46.529-37.209-1.561-3.9-2.964-7.4-4.438-11.085-10.683,3.529-20.731,7.658-29.373,14.244a76.1,76.1,0,0,0-14.773,14.579C426.8,207.546,427.512,210.618,435.117,218.659Zm55.754-13.824c-7.78,1.755-19.983,7.384-26.789,13.242a56.42,56.42,0,0,0-10.949,12.286c-4.522,7.16-2.755,12.412,4.479,17.208,7.519-16.5,22.624-23.447,38.3-29.935Zm138.287,59.941c2.175-2.826,3.967-5.156,5.76-7.484,4.484-5.822,4.808-8.408.729-14.467-7.753-11.517-19.726-16.561-32.468-21.053l-5.293,13.49C611.662,241.8,623.609,249.511,629.158,264.776Zm-9.889-83.749c19.125,7.74,37.706,15.515,45.928,36.335,7.84-8.36,8.008-10.871,1.541-19.871-.416-.578-.829-1.161-1.288-1.7-11.081-13.108-26.033-19.738-41.929-25.479ZM497.8,222.468c-10.838,3.919-20.99,8.44-28.675,16.778-3.063,3.324-4.879,7.838-7.02,11.936a4.16,4.16,0,0,0,.131,3.583c2.7,3.916,5.686,7.638,8.94,11.918,4.982-16.748,17.693-24.644,31.647-31.486Zm-2.251-19.455c1.461,3.782,2.8,6.917,3.878,10.138.8,2.392,2.019,2.809,4.474,2.253,8.022-1.817,16.075-3.577,24.2-4.85,6.4-1,12.914-1.25,19.391-1.834v-13.4C529.753,195.79,512.626,197.755,495.552,203.014Zm109.82-.278a194.239,194.239,0,0,0-52.167-7.323v12.64l47.441,6.509Zm-.262,14.235c15.6,6.2,30.676,12.643,37.827,29.253,7.554-7.472,7.944-11.455,2.073-19.9-.081-.116-.159-.236-.245-.348-8.839-11.405-21.311-16.884-34.631-21.734C608.361,208.729,606.769,212.761,605.109,216.97ZM553.172,213V225.3l40.449,7.137c1.4-3.574,3.037-7.729,5.174-13.167Zm-50.623,7.926,4.575,11.47,40.333-6.962V213.969C532.083,214.389,517.372,216.324,502.549,220.923Z" transform="translate(-423 -154.803)" fill="#284b63"/>
          <path id="Tracé_56" data-name="Tracé 56" d="M423.828,304.981l-.41-.088-.417.046V222a25.313,25.313,0,0,1,.807,4.489Q423.875,265.735,423.828,304.981Z" transform="translate(-423 -164.544)" fill="#284b63"/>
          <path id="Tracé_57" data-name="Tracé 57" d="M720.854,304.084l-.169.387-.418-.062c-.085-11.921-.209-23.842-.246-35.763q-.064-20.87.027-41.74a30.557,30.557,0,0,1,.806-4.907Z" transform="translate(-466.052 -164.544)" fill="#284b63"/>
          <path id="Tracé_58" data-name="Tracé 58" d="M640.774,319.829l-1.249-.76Z" transform="translate(-454.388 -178.615)" fill="#284b63"/>
          <path id="Tracé_59" data-name="Tracé 59" d="M718.815,319.818l-.387.174-.423-.032Z" transform="translate(-465.764 -178.724)" fill="#284b63"/>
        </g>
      </g>
    </g>
    <path id="Tracé_60" data-name="Tracé 60" d="M567.172,311.752c-25.891,0-46.172-9.389-46.172-21.376S541.282,269,567.172,269s46.172,9.389,46.172,21.376S593.063,311.752,567.172,311.752Zm0-37.622c-11.306,0-21.9,1.882-29.819,5.3-7.133,3.076-11.223,7.066-11.223,10.946s4.091,7.87,11.223,10.946c7.923,3.418,18.512,5.3,29.819,5.3s21.9-1.882,29.819-5.3c7.133-3.076,11.223-7.066,11.223-10.946s-4.09-7.87-11.223-10.946C589.068,276.012,578.478,274.13,567.172,274.13Z" transform="translate(-14.206 -16.554)" fill="#284b63"/>
  </g>
</svg>
