<svg xmlns="http://www.w3.org/2000/svg" width="220.32" height="193.1" viewBox="0 0 220.32 193.1">
  <g id="Groupe_242" data-name="Groupe 242" transform="translate(-84.84 -5082.966)">
    <g id="Groupe_203" data-name="Groupe 203" transform="translate(84.84 5082.966)">
      <g id="GIIEeD" transform="translate(40.023 41.888)">
        <g id="Groupe_63" data-name="Groupe 63">
          <g id="Groupe_62" data-name="Groupe 62">
            <path id="Tracé_43" data-name="Tracé 43" d="M707.705,174.184c5.577,0,10.8-.026,16.015.007,7.182.045,10.492,4.825,8.033,11.617q-12.048,33.268-24.132,66.523c-1.965,5.408-3.912,6.743-9.78,6.743q-55.751,0-111.5-.012c-7.329,0-9.838-2.523-9.839-9.846q-.005-46.252,0-92.5c0-7.055,2.6-9.646,9.7-9.653,11.368-.011,22.738-.068,34.105.062a12.753,12.753,0,0,1,5.553,1.441c6.482,3.389,12.784,7.127,19.293,10.462a15.8,15.8,0,0,0,6.8,1.734c15.085.151,30.171.077,45.257.079,8.231,0,10.438,2.208,10.5,10.5C707.711,172.095,707.705,172.857,707.705,174.184Zm-4.294,0c1.332-8.178.235-9.527-7.416-9.53-15.2,0-30.394.05-45.589-.088a14.218,14.218,0,0,1-6.173-1.6c-6.493-3.369-12.8-7.1-19.287-10.479a13.577,13.577,0,0,0-5.877-1.516c-10.931-.142-21.865-.081-32.8-.061-4.99.01-5.876.928-5.878,5.982q-.01,36.414-.006,72.83c0,6.889-.029,13.779.013,20.668.021,3.528,1.237,4.6,4.7,4.886,3.5.287,5.332-1.152,6.525-4.488,8.312-23.244,16.785-46.431,25.207-69.636,2.036-5.61,3.963-6.963,9.971-6.964q36.405-.005,72.812,0Z" transform="translate(-576.497 -147.037)" fill="#534134"/>
          </g>
        </g>
      </g>
      <path id="Tracé_44" data-name="Tracé 44" d="M709.653,121.939A109.363,109.363,0,0,0,632.167,90c-.345,0-.69,0-1.043.007-59.949.551-108.9,49.777-109.124,109.734a109.137,109.137,0,0,0,8.394,42.58,3.668,3.668,0,0,0,2.358-1.542,3.618,3.618,0,0,0,.419-3.386A105.829,105.829,0,0,1,632.152,94.406h.676c57.474.36,104.615,47.405,105.085,104.887a105.041,105.041,0,0,1-6.778,38.13,3.615,3.615,0,0,0,.419,3.364,3.653,3.653,0,0,0,2.372,1.542,110.028,110.028,0,0,0-24.272-120.39Z" transform="translate(-521.999 -90)" fill="#534134"/>
      <g id="Groupe_64" data-name="Groupe 64" transform="translate(0 0)">
        <path id="Tracé_45" data-name="Tracé 45" d="M709.653,121.939A109.363,109.363,0,0,0,632.167,90c-.345,0-.69,0-1.043.007-59.949.551-108.9,49.777-109.124,109.734a109.137,109.137,0,0,0,8.394,42.58,3.668,3.668,0,0,0,2.358-1.542,3.618,3.618,0,0,0,.419-3.386A105.829,105.829,0,0,1,632.152,94.406h.676c57.474.36,104.615,47.405,105.085,104.887a105.041,105.041,0,0,1-6.778,38.13,3.615,3.615,0,0,0,.419,3.364,3.653,3.653,0,0,0,2.372,1.542,110.028,110.028,0,0,0-24.272-120.39Z" transform="translate(-521.999 -90)" fill="#534134"/>
      </g>
    </g>
    <g id="Qui_sommes_nous_" data-name="Qui sommes nous " transform="translate(132.119 5250.066)" style="isolation: isolate">
      <text id="Nos_Projets" data-name="Nos Projets" transform="translate(60 21)" fill="#534134" font-size="22" font-family="Raleway-Bold, Raleway" font-weight="700" style="isolation: isolate"><tspan x="-59.686" y="0">Nos Projets</tspan></text>
    </g>
  </g>
</svg>
